<?xml version="1.0" standalone="no"?><!DOCTYPE svg PUBLIC "-//W3C//DTD SVG 1.1//EN" "http://www.w3.org/Graphics/SVG/1.1/DTD/svg11.dtd"><svg class="icon" width="16px" height="16.00px" viewBox="0 0 1024 1024" version="1.1" xmlns="http://www.w3.org/2000/svg"><path d="M597.333333 85.333333l-341.333333 0c-47.146667 0-84.906667 38.186667-84.906667 85.333333l-0.426667 682.666667c0 47.146667 37.76 85.333333 84.906667 85.333333l512.426667 0c47.146667 0 85.333333-38.186667 85.333333-85.333333l0-512-256-256zM682.666667 768l-341.333333 0 0-85.333333 341.333333 0 0 85.333333zM682.666667 597.333333l-341.333333 0 0-85.333333 341.333333 0 0 85.333333zM554.666667 384l0-234.666667 234.666667 234.666667-234.666667 0z" fill="#515151" /></svg>